HIERARCHY
ROOT Hips
{
    OFFSET 0.000000 0.000000 0.000000
    CHANNELS 6 Xposition Yposition Zposition Zrotation Xrotation Yrotation
    JOINT Spine
    {
        OFFSET -0.000000 7.305680 0.000000
        CHANNELS 3 Zrotation Xrotation Yrotation
        JOINT Spine1
        {
            OFFSET -0.000000 20.356600 0.000000
            CHANNELS 3 Zrotation Xrotation Yrotation
            JOINT Neck
            {
                OFFSET -0.000000 22.138500 0.000000
                CHANNELS 3 Zrotation Xrotation Yrotation
                JOINT Head
                {
                    OFFSET -0.000000 13.809501 1.781870
                    CHANNELS 3 Zrotation Xrotation Yrotation
                    End Site
                    {
                        OFFSET -0.000000 17.818779 0.000000
                    }
                }
            }
            JOINT LeftShoulder
            {
                OFFSET 3.599130 17.990000 0.023591
                CHANNELS 3 Zrotation Xrotation Yrotation
                JOINT LeftArm
                {
                    OFFSET 12.560999 0.000000 0.000000
                    CHANNELS 3 Zrotation Xrotation Yrotation
                    JOINT LeftForeArm
                    {
                        OFFSET 22.903299 0.000000 0.000000
                        CHANNELS 3 Zrotation Xrotation Yrotation
                        JOINT LeftHand
                        {
                            OFFSET 21.865299 0.000000 0.000000
                            CHANNELS 3 Zrotation Xrotation Yrotation
                            JOINT LeftHandThumb1
                            {
                                OFFSET 1.853710 -2.106480 2.949080
                                CHANNELS 3 Zrotation Xrotation Yrotation
                                JOINT LeftHandThumb2
                                {
                                    OFFSET 2.049150 0.000000 1.336400
                                    CHANNELS 3 Zrotation Xrotation Yrotation
                                    JOINT LeftHandThumb3
                                    {
                                        OFFSET 2.672810 0.000000 0.000000
                                        CHANNELS 3 Zrotation Xrotation Yrotation
                                        End Site
                                        {
                                            OFFSET 2.381310 0.000000 0.000000
                                        }
                                    }
                                }
                            }
                            JOINT LeftHandIndex1
                            {
                                OFFSET 7.583340 0.000000 2.949080
                                CHANNELS 3 Zrotation Xrotation Yrotation
                                JOINT LeftHandIndex2
                                {
                                    OFFSET 4.454680 0.000000 0.000000
                                    CHANNELS 3 Zrotation Xrotation Yrotation
                                    JOINT LeftHandIndex3
                                    {
                                        OFFSET 2.227340 0.000000 0.000000
                                        CHANNELS 3 Zrotation Xrotation Yrotation
                                        End Site
                                        {
                                            OFFSET 1.984424 0.000000 0.000000
                                        }
                                    }
                                }
                            }
                            JOINT LeftHandMiddle1
                            {
                                OFFSET 7.583340 0.000000 0.977409
                                CHANNELS 3 Zrotation Xrotation Yrotation
                                JOINT LeftHandMiddle2
                                {
                                    OFFSET 4.900150 0.000000 0.000000
                                    CHANNELS 3 Zrotation Xrotation Yrotation
                                    JOINT LeftHandMiddle3
                                    {
                                        OFFSET 2.672810 0.000000 0.000000
                                        CHANNELS 3 Zrotation Xrotation Yrotation
                                        End Site
                                        {
                                            OFFSET 2.381310 0.000000 0.000000
                                        }
                                    }
                                }
                            }
                            JOINT LeftHandRing1
                            {
                                OFFSET 7.162050 0.000000 -0.977409
                                CHANNELS 3 Zrotation Xrotation Yrotation
                                JOINT LeftHandRing2
                                {
                                    OFFSET 4.454680 0.000000 0.000000
                                    CHANNELS 3 Zrotation Xrotation Yrotation
                                    JOINT LeftHandRing3
                                    {
                                        OFFSET 2.227340 0.000000 0.000000
                                        CHANNELS 3 Zrotation Xrotation Yrotation
                                        End Site
                                        {
                                            OFFSET 1.984424 0.000000 0.000000
                                        }
                                    }
                                }
                            }
                            JOINT LeftHandPinky1
                            {
                                OFFSET 6.740750 0.000000 -2.949080
                                CHANNELS 3 Zrotation Xrotation Yrotation
                                JOINT LeftHandPinky2
                                {
                                    OFFSET 3.563750 0.000000 0.000000
                                    CHANNELS 3 Zrotation Xrotation Yrotation
                                    JOINT LeftHandPinky3
                                    {
                                        OFFSET 1.781870 0.000000 0.000000
                                        CHANNELS 3 Zrotation Xrotation Yrotation
                                        End Site
                                        {
                                            OFFSET 1.587538 0.000000 0.000000
                                        }
                                    }
                                }
                            }
                        }
                    }
                }
            }
            JOINT RightShoulder
            {
                OFFSET -3.506990 17.990000 0.023591
                CHANNELS 3 Zrotation Xrotation Yrotation
                JOINT RightArm
                {
                    OFFSET -12.560999 0.000000 0.000000
                    CHANNELS 3 Zrotation Xrotation Yrotation
                    JOINT RightForeArm
                    {
                        OFFSET -22.903299 0.000000 0.000000
                        CHANNELS 3 Zrotation Xrotation Yrotation
                        JOINT RightHand
                        {
                            OFFSET -21.865299 0.000000 0.000000
                            CHANNELS 3 Zrotation Xrotation Yrotation
                            JOINT RightHandThumb1
                            {
                                OFFSET -1.853710 -2.106480 2.949080
                                CHANNELS 3 Zrotation Xrotation Yrotation
                                JOINT RightHandThumb2
                                {
                                    OFFSET -2.049150 0.000000 1.336400
                                    CHANNELS 3 Zrotation Xrotation Yrotation
                                    JOINT RightHandThumb3
                                    {
                                        OFFSET -2.672810 0.000000 0.000000
                                        CHANNELS 3 Zrotation Xrotation Yrotation
                                        End Site
                                        {
                                            OFFSET -2.381310 0.000000 0.000000
                                        }
                                    }
                                }
                            }
                            JOINT RightHandIndex1
                            {
                                OFFSET -7.583340 0.000000 2.949080
                                CHANNELS 3 Zrotation Xrotation Yrotation
                                JOINT RightHandIndex2
                                {
                                    OFFSET -4.454680 0.000000 0.000000
                                    CHANNELS 3 Zrotation Xrotation Yrotation
                                    JOINT RightHandIndex3
                                    {
                                        OFFSET -2.227340 0.000000 0.000000
                                        CHANNELS 3 Zrotation Xrotation Yrotation
                                        End Site
                                        {
                                            OFFSET -1.984424 0.000000 0.000000
                                        }
                                    }
                                }
                            }
                            JOINT RightHandMiddle1
                            {
                                OFFSET -7.583340 0.000000 0.977409
                                CHANNELS 3 Zrotation Xrotation Yrotation
                                JOINT RightHandMiddle2
                                {
                                    OFFSET -4.900150 0.000000 0.000000
                                    CHANNELS 3 Zrotation Xrotation Yrotation
                                    JOINT RightHandMiddle3
                                    {
                                        OFFSET -2.672810 0.000000 0.000000
                                        CHANNELS 3 Zrotation Xrotation Yrotation
                                        End Site
                                        {
                                            OFFSET -2.381310 0.000000 0.000000
                                        }
                                    }
                                }
                            }
                            JOINT RightHandRing1
                            {
                                OFFSET -7.162050 0.000000 -0.977409
                                CHANNELS 3 Zrotation Xrotation Yrotation
                                JOINT RightHandRing2
                                {
                                    OFFSET -4.454680 0.000000 0.000000
                                    CHANNELS 3 Zrotation Xrotation Yrotation
                                    JOINT RightHandRing3
                                    {
                                        OFFSET -2.227340 0.000000 0.000000
                                        CHANNELS 3 Zrotation Xrotation Yrotation
                                        End Site
                                        {
                                            OFFSET -1.984424 0.000000 0.000000
                                        }
                                    }
                                }
                            }
                            JOINT RightHandPinky1
                            {
                                OFFSET -6.740750 0.000000 -2.949080
                                CHANNELS 3 Zrotation Xrotation Yrotation
                                JOINT RightHandPinky2
                                {
                                    OFFSET -3.563750 0.000000 0.000000
                                    CHANNELS 3 Zrotation Xrotation Yrotation
                                    JOINT RightHandPinky3
                                    {
                                        OFFSET -1.781870 0.000000 0.000000
                                        CHANNELS 3 Zrotation Xrotation Yrotation
                                        End Site
                                        {
                                            OFFSET -1.587538 0.000000 0.000000
                                        }
                                    }
                                }
                            }
                        }
                    }
                }
            }
        }
    }
    JOINT LeftUpLeg
    {
        OFFSET 8.909360 0.000000 0.000000
        CHANNELS 3 Zrotation Xrotation Yrotation
        JOINT LeftLeg
        {
            OFFSET -0.000000 -38.765602 0.000000
            CHANNELS 3 Zrotation Xrotation Yrotation
            JOINT LeftFoot
            {
                OFFSET -0.000000 -35.245003 0.000000
                CHANNELS 3 Zrotation Xrotation Yrotation
                JOINT LeftToeBase
                {
                    OFFSET -0.000000 -5.791090 13.364000
                    CHANNELS 3 Zrotation Xrotation Yrotation
                    End Site
                    {
                        OFFSET -0.000000 0.000000 3.563756
                    }
                }
            }
        }
    }
    JOINT RightUpLeg
    {
        OFFSET -8.909360 0.000000 0.000000
        CHANNELS 3 Zrotation Xrotation Yrotation
        JOINT RightLeg
        {
            OFFSET -0.000000 -38.765602 0.000000
            CHANNELS 3 Zrotation Xrotation Yrotation
            JOINT RightFoot
            {
                OFFSET -0.000000 -35.245003 0.000000
                CHANNELS 3 Zrotation Xrotation Yrotation
                JOINT RightToeBase
                {
                    OFFSET -0.000000 -5.791090 13.364000
                    CHANNELS 3 Zrotation Xrotation Yrotation
                    End Site
                    {
                        OFFSET -0.000000 0.000000 3.563756
                    }
                }
            }
        }
    }
}
MOTION
Frames:    4
Frame Time:    0.033333
-8.822198    71.288177    88.655678    -4.137416    8.684411    -12.990848    -9.287198    7.280583    10.126611    -27.256689    5.693132    4.559196    23.600355    -8.587636    0.520904    30.642086    -10.784304    0.788228    6.177791    -10.040073    -20.423979    -56.449390    -2.889600    -7.949149    -14.445062    -67.356010    -111.432434    43.872314    -77.960205    25.291748    8.292569    1.627075    11.250892    -0.000000    0.000000    9.139996    -0.000000    0.000000    18.279991    21.855404    0.000000    -0.000000    0.000000    0.000000    0.000000    0.000000    0.000000    0.000000    -6.814835    -5.735421    7.540353    -36.299995    0.000000    0.000000    -22.330093    0.000000    0.000000    -35.172920    -14.367876    11.483390    -72.600006    0.000000    0.000000    -44.660191    0.000000    0.000000    -65.405647    -24.074287    10.576037    -110.000000    0.000000    0.000000    -67.666954    0.000000    0.000000    -5.537074    -10.874636    10.202708    72.632126    33.377308    19.377924    -22.962900    -70.564507    65.443779    87.568031    -62.524841    94.731514    -1.941554    -1.678604    1.317801    0.000000    0.000000    0.000000    0.000000    0.000000    0.000000    10.534912    0.000000    -0.000000    21.069822    0.000000    -0.000000    10.534912    0.000000    -0.000000    24.619247    -2.766666    -3.400969    49.513523    0.000000    -0.000000    24.756760    0.000000    -0.000000    38.577778    -6.274573    -6.037633    77.957214    0.000000    -0.000000    38.978611    0.000000    -0.000000    52.917831    -10.440290    -7.798708    107.262848    0.000000    -0.000000    53.631424    0.000000    -0.000000    41.149731    -26.009859    31.288898    -6.014044    46.715557    28.763199    -21.058800    -5.809906    -21.974493    0.253717    -5.009542    -1.370574    -1.631769    -39.303787    19.583244    9.376188    54.920719    -18.366457    21.152271    -19.163246    10.398093    -0.579746    -1.872809    0.732417    
-8.959339    72.320602    88.472885    -4.065830    8.300190    -13.679385    -10.489873    6.863472    7.165524    -24.978098    5.727789    3.447948    23.223244    -6.614729    1.994118    30.402287    -9.892634    2.479439    5.494550    -9.878273    -19.757271    -54.894970    -4.390116    -8.136670    -11.578057    -66.136803    -116.433952    12.075974    -78.129234    -3.132811    8.236388    1.265597    10.781230    -0.000000    0.000000    8.737260    -0.000000    0.000000    17.474520    12.550469    0.000000    -0.000000    0.000000    0.000000    0.000000    0.000000    0.000000    0.000000    -14.044069    -7.320754    7.921993    -36.299995    0.000000    0.000000    -23.570244    0.000000    0.000000    -40.304405    -17.391003    11.839284    -72.600006    0.000000    0.000000    -47.140499    0.000000    0.000000    -68.766800    -28.410500    10.473582    -110.000000    0.000000    0.000000    -71.424980    0.000000    0.000000    -7.076167    -8.398983    7.365805    71.535439    29.361340    15.078061    -28.071100    -63.631256    65.263283    79.186661    -61.335182    82.396347    -1.660197    -1.625160    1.421983    0.000000    0.000000    0.000000    0.000000    0.000000    0.000000    10.986609    0.000000    -0.000000    21.973219    0.000000    -0.000000    10.986609    0.000000    -0.000000    25.358204    -2.587807    -3.070268    50.949650    0.000000    -0.000000    25.474825    0.000000    -0.000000    39.626804    -5.854333    -5.410756    79.926102    0.000000    -0.000000    39.963043    0.000000    -0.000000    54.302292    -9.713269    -6.911992    109.780602    0.000000    -0.000000    54.890301    0.000000    -0.000000    36.880123    -25.876789    24.237780    -2.844444    43.645634    24.642452    -22.740339    -6.626433    -25.024811    0.247499    -5.247455    -1.393285    1.924909    -36.357262    23.142529    2.545143    51.671169    -13.584624    21.645449    -19.907391    7.376137    -0.454284    -1.182741    0.600278    
-8.945756    73.284676    88.421211    -3.711062    7.605479    -14.552217    -11.199585    6.823479    4.239282    -23.679049    5.701970    2.386225    22.824261    -4.504711    3.534427    29.935335    -9.252729    4.339305    4.720326    -9.467172    -19.054865    -51.855656    -6.844242    -7.042601    -5.688220    -64.030891    -117.614510    -14.507215    -72.949890    -24.021162    7.811245    0.843797    9.861091    -0.000000    0.000000    8.110911    -0.000000    0.000000    16.221827    1.461793    0.000000    -0.000000    0.000000    0.000000    0.000000    0.000000    0.000000    0.000000    -22.734221    -10.378370    8.748267    -36.299995    0.000000    0.000000    -25.427605    0.000000    0.000000    -46.581871    -23.396145    12.661015    -72.600006    0.000000    0.000000    -50.855202    0.000000    0.000000    -73.672951    -37.158363    10.033914    -110.000000    0.000000    0.000000    -77.053345    0.000000    0.000000    -8.930943    -5.530055    4.159848    69.230774    27.881153    11.251387    -31.254835    -57.651165    67.367950    73.030800    -59.061546    72.605408    -1.129398    -1.742889    1.951920    0.000000    0.000000    0.000000    0.000000    0.000000    0.000000    11.816482    0.000000    -0.000000    23.632963    0.000000    -0.000000    11.816482    0.000000    -0.000000    26.455666    -2.593653    -2.932843    52.134087    0.000000    -0.000000    26.567766    0.000000    -0.000000    41.000088    -5.842244    -5.122965    80.635216    0.000000    -0.000000    41.319046    0.000000    -0.000000    55.971512    -9.651321    -6.458611    110.000000    0.000000    -0.000000    56.517345    0.000000    -0.000000    32.023823    -24.906248    16.476580    -0.016634    40.451691    21.483873    -24.192511    -7.400212    -28.521255    0.249698    -5.241782    -1.398366    3.954774    -33.232655    26.173374    -2.202937    48.280464    -10.422235    21.937351    -20.003735    4.625308    -0.340015    -0.794044    0.457275    
-8.801081    74.178955    88.449875    -3.261701    6.607746    -15.362970    -11.253385    7.308418    1.051100    -23.444487    5.479616    1.247935    22.488071    -2.348286    5.176573    29.232468    -8.778456    6.370542    4.154268    -8.791392    -18.036169    -46.912937    -9.215387    -4.223913    0.774294    -61.269115    -118.075211    -26.659428    -64.718567    -27.502987    6.816358    0.301394    8.193775    -0.000000    0.000000    6.923881    -0.000000    0.000000    13.847761    -9.286455    0.000000    0.000000    -18.572910    0.000000    0.000000    -9.286455    0.000000    0.000000    -32.375458    -11.997407    7.386048    -48.743843    0.000000    0.000000    -32.621925    0.000000    0.000000    -55.529564    -25.907228    9.562214    -78.914772    0.000000    0.000000    -55.957405    0.000000    0.000000    -82.842178    -39.779419    4.593917    -110.000000    0.000000    0.000000    -80.000000    0.000000    0.000000    -10.950629    -2.665915    0.962178    66.107063    29.148094    7.688822    -30.533251    -53.095810    73.058350    69.507057    -56.593441    64.678909    -0.683041    -1.913250    2.512482    0.000000    0.000000    0.000000    0.000000    0.000000    0.000000    12.671459    0.000000    -0.000000    25.342918    0.000000    -0.000000    12.671459    0.000000    -0.000000    27.558975    -2.548485    -2.749230    53.279755    0.000000    -0.000000    27.662668    0.000000    -0.000000    42.362797    -5.716032    -4.758380    81.216599    0.000000    -0.000000    42.653889    0.000000    -0.000000    57.612389    -9.402498    -5.916303    110.000000    0.000000    -0.000000    58.099361    0.000000    -0.000000    27.062607    -23.196146    7.821415    1.979663    37.533699    17.526978    -24.784773    -9.213641    -29.148855    0.248666    -5.001359    -1.355425    4.521092    -30.312632    29.177860    -3.992315    45.278149    -9.897696    21.993748    -19.401695    2.447244    -0.294555    -0.814878    0.383245    
